<?xml version="1.0" standalone="no"?>
<!DOCTYPE svg PUBLIC "-//W3C//DTD SVG 20010904//EN"
 "http://www.w3.org/TR/2001/REC-SVG-20010904/DTD/svg10.dtd">
<svg version="1.0" xmlns="http://www.w3.org/2000/svg"
 width="300.000000pt" height="313.000000pt" viewBox="0 0 300.000000 313.000000"
 preserveAspectRatio="xMidYMid meet">
<metadata>
Created by potrace 1.10, written by Peter Selinger 2001-2011
</metadata>
<g transform="translate(0.000000,313.000000) scale(0.100000,-0.100000)"
fill="#000000" stroke="none">
<path d="M1367 2822 l-157 -157 160 -160 160 -160 160 160 160 160 -157 157
c-87 87 -160 158 -163 158 -3 0 -76 -71 -163 -158z m300 -4 c69 -68 129 -131
135 -142 8 -15 -10 -38 -124 -152 -73 -74 -139 -134 -146 -134 -7 0 -73 61
-148 135 -120 120 -134 138 -123 153 29 39 260 262 271 262 6 0 67 -55 135
-122z"/>
<path d="M807 1832 c-246 -246 -447 -449 -447 -452 0 -3 201 -4 447 -2 l448 2
0 450 c0 248 0 450 0 450 0 0 -201 -201 -448 -448z m421 -29 l-3 -398 -389 -3
c-237 -1 -393 1 -399 7 -10 10 765 791 784 791 6 0 8 -153 7 -397z"/>
<path d="M1710 1799 l0 -449 449 0 448 0 -274 273 c-151 149 -353 351 -449
448 l-174 176 0 -448z m437 -21 c261 -261 388 -395 380 -400 -7 -4 -184 -8
-393 -8 -304 0 -384 3 -393 13 -12 15 -16 778 -4 790 3 4 9 5 12 2 3 -3 182
-182 398 -397z"/>
<path d="M1927 1040 l3 -220 220 -3 c121 -1 220 0 220 2 0 4 -440 441 -443
441 -1 0 -1 -99 0 -220z m256 -68 c62 -62 114 -117 115 -122 3 -7 -56 -10
-170 -8 l-173 3 -3 160 c-1 87 0 166 3 174 6 16 23 0 228 -207z"/>
<path d="M703 1028 c-123 -122 -223 -222 -223 -223 0 0 101 1 225 3 l225 3 0
219 c0 121 -1 220 -2 220 -2 0 -103 -100 -225 -222z m205 -4 c1 -82 0 -159 -3
-171 -5 -23 -7 -23 -180 -23 -96 0 -175 3 -175 7 0 14 335 343 345 340 6 -2
11 -64 13 -153z"/>
<path d="M1565 1183 l-311 -3 -154 -155 -155 -155 315 0 316 0 157 154 c143
140 171 170 150 164 -5 -2 -148 -4 -318 -5z m253 -33 c-2 -6 -59 -66 -128
-135 l-124 -125 -278 0 c-153 0 -278 3 -278 7 0 11 234 245 255 253 30 13 557
12 553 0z"/>
<path d="M1003 670 c1 -3 101 -103 222 -222 l220 -218 223 222 c122 122 222
222 222 222 0 1 -200 1 -445 1 -245 0 -444 -2 -442 -5z m817 -28 c0 -10 -355
-365 -371 -371 -11 -3 -379 357 -379 371 0 5 169 8 375 8 206 0 375 -4 375 -8z"/>
</g>
</svg>
