<?xml version="1.0" standalone="no"?>
<!DOCTYPE svg PUBLIC "-//W3C//DTD SVG 20010904//EN"
 "http://www.w3.org/TR/2001/REC-SVG-20010904/DTD/svg10.dtd">
<svg version="1.0" xmlns="http://www.w3.org/2000/svg"
 width="300.000000pt" height="255.000000pt" viewBox="0 0 300.000000 255.000000"
 preserveAspectRatio="xMidYMid meet">
<metadata>
Created by potrace 1.10, written by Peter Selinger 2001-2011
</metadata>
<g transform="translate(0.000000,255.000000) scale(0.100000,-0.100000)"
fill="#000000" stroke="none">
<path d="M1200 2305 l-155 -155 -152 152 -153 153 0 -306 0 -305 152 -150 c93
-92 153 -144 156 -136 2 8 -51 69 -123 140 -70 70 -136 138 -146 151 -17 22
-19 44 -19 272 0 136 4 250 9 253 5 3 55 -39 112 -95 123 -119 147 -139 167
-139 8 0 72 56 142 125 69 69 129 125 133 125 4 0 7 -119 7 -265 l0 -266 -100
-101 c-98 -99 -104 -108 -100 -138 1 -8 136 -150 301 -315 l299 -301 -2 -409
-3 -410 -382 -3 c-296 -2 -383 0 -383 10 0 6 43 55 95 109 52 53 95 100 95
105 1 45 2 352 1 363 -1 8 -94 108 -208 222 l-207 209 153 152 c142 142 182
188 164 188 -3 0 -84 -77 -178 -170 l-171 -171 213 -211 213 -212 0 -185 0
-186 -125 -125 -125 -125 738 8 737 8 151 147 c83 81 152 149 153 152 0 3
-137 4 -306 2 l-308 -3 -147 -147 -148 -147 0 420 0 420 -308 308 -309 309
108 105 108 106 3 306 c2 168 3 307 3 308 -1 1 -70 -67 -155 -152z m1390
-1863 c0 -4 -56 -63 -123 -130 l-124 -122 -256 0 c-176 0 -258 3 -263 11 -4 6
44 62 112 130 l119 119 267 0 c148 0 268 -4 268 -8z"/>
</g>
</svg>
