<?xml version="1.0" standalone="no"?>
<!DOCTYPE svg PUBLIC "-//W3C//DTD SVG 20010904//EN"
 "http://www.w3.org/TR/2001/REC-SVG-20010904/DTD/svg10.dtd">
<svg version="1.0" xmlns="http://www.w3.org/2000/svg"
 width="300.000000pt" height="199.000000pt" viewBox="0 0 300.000000 199.000000"
 preserveAspectRatio="xMidYMid meet">
<metadata>
Created by potrace 1.10, written by Peter Selinger 2001-2011
</metadata>
<g transform="translate(0.000000,199.000000) scale(0.100000,-0.100000)"
fill="#000000" stroke="none">
<path d="M570 1585 l215 -215 210 0 210 0 -215 215 -215 215 -210 0 -210 0
215 -215z m382 8 c98 -98 178 -181 178 -185 0 -4 -77 -8 -172 -8 l-172 0 -173
173 c-95 94 -173 178 -173 185 0 9 40 12 167 12 l167 0 178 -177z"/>
<path d="M1980 1558 l-204 -208 419 0 420 0 -210 210 c-115 116 -212 209 -215
208 -3 0 -97 -95 -210 -210z m394 3 c98 -98 166 -173 162 -180 -8 -12 -677
-16 -690 -4 -8 8 333 353 349 353 6 0 86 -76 179 -169z"/>
<path d="M1180 1345 l-295 -295 -150 150 -150 150 -150 -150 -150 -150 150
-150 150 -150 148 147 148 148 292 -298 c161 -163 297 -297 302 -297 6 0 79
72 164 161 l155 160 148 -148 148 -148 145 145 c80 80 145 147 145 150 0 3
-128 4 -285 2 -157 -2 -285 1 -285 6 0 4 59 66 130 137 72 70 130 131 130 134
0 7 -583 591 -590 591 -3 0 -138 -133 -300 -295z m580 -14 c148 -148 270 -276
270 -283 0 -18 -537 -558 -555 -558 -16 0 -555 538 -555 554 0 15 542 556 557
556 7 0 134 -121 283 -269z m-1032 -158 c61 -63 112 -118 112 -123 0 -6 -56
-67 -125 -136 -104 -104 -128 -123 -142 -115 -30 16 -243 239 -243 253 0 7 56
69 125 137 112 111 127 122 142 110 10 -7 69 -64 131 -126z m1582 -432 c0 -16
-205 -221 -220 -221 -18 0 -220 200 -220 217 0 10 49 13 220 13 128 0 220 -4
220 -9z"/>
<path d="M1002 607 l-142 -142 150 -150 150 -150 0 293 c0 160 -3 292 -8 292
-4 0 -71 -64 -150 -143z m137 -135 c0 -114 -4 -214 -9 -222 -8 -12 -31 7 -120
95 -60 60 -110 112 -110 116 0 14 221 229 230 224 5 -3 9 -94 9 -213z"/>
</g>
</svg>
