<?xml version="1.0" standalone="no"?>
<!DOCTYPE svg PUBLIC "-//W3C//DTD SVG 20010904//EN"
 "http://www.w3.org/TR/2001/REC-SVG-20010904/DTD/svg10.dtd">
<svg version="1.0" xmlns="http://www.w3.org/2000/svg"
 width="300.000000pt" height="181.000000pt" viewBox="0 0 300.000000 181.000000"
 preserveAspectRatio="xMidYMid meet">
<metadata>
Created by potrace 1.10, written by Peter Selinger 2001-2011
</metadata>
<g transform="translate(0.000000,181.000000) scale(0.100000,-0.100000)"
fill="#000000" stroke="none">
<path d="M1161 1388 c1 -363 7 -473 22 -383 3 22 6 184 7 359 0 176 3 322 6
325 3 3 172 -162 376 -366 266 -266 369 -376 365 -387 -5 -13 1 -16 31 -16 37
0 33 4 -383 420 -231 231 -421 420 -422 420 -2 0 -3 -168 -2 -372z"/>
<path d="M295 1311 l0 -301 296 0 296 0 -148 148 c-81 81 -214 216 -296 300
l-148 153 0 -300z m285 -26 c135 -135 247 -250 248 -255 3 -7 -81 -9 -250 -8
l-253 3 -3 253 c-1 138 1 252 6 252 4 0 118 -110 252 -245z"/>
<path d="M377 926 c43 -40 138 -135 211 -210 l132 -136 0 43 c0 30 -3 38 -10
27 -10 -16 -60 30 -259 233 -84 87 -90 95 -70 108 9 6 -3 9 -34 9 l-49 0 79
-74z"/>
<path d="M840 990 c14 -4 81 -8 150 -9 84 -1 130 -5 138 -13 8 -8 12 -64 12
-184 0 -147 -2 -173 -16 -178 -22 -9 -357 -7 -370 2 -6 4 -14 14 -17 22 -3 8
-6 0 -6 -17 l-1 -33 210 0 210 0 0 210 0 210 -167 -1 c-100 -1 -158 -4 -143
-9z"/>
<path d="M1962 903 c-12 -2 -19 -9 -16 -15 4 -6 -164 -180 -372 -386 l-379
-376 -6 234 c-3 129 -7 237 -8 240 -1 3 -6 -4 -11 -15 -5 -11 -9 -135 -9 -275
l-1 -255 111 110 c209 208 731 745 723 744 -5 -1 -19 -4 -32 -6z"/>
<path d="M1870 745 c-79 -79 -142 -146 -140 -147 3 -2 136 -2 296 0 l290 3 60
62 c43 45 47 51 14 22 -24 -22 -48 -44 -52 -50 -10 -14 -551 -20 -546 -5 1 5
55 62 118 125 l114 115 261 0 c144 0 265 -3 268 -7 4 -3 -3 -18 -15 -32 -13
-14 -4 -8 20 14 23 21 42 40 42 42 0 2 -132 3 -293 3 l-292 0 -145 -145z"/>
<path d="M2613 878 c-26 -33 -26 -40 -3 -28 22 12 30 5 131 -96 60 -60 109
-115 109 -121 0 -10 -52 -13 -225 -13 -195 0 -225 2 -225 15 0 12 -6 11 -31
-7 l-31 -23 289 -5 c158 -3 290 -4 293 -2 5 3 -282 292 -291 292 -4 0 -11 -6
-16 -12z"/>
</g>
</svg>
